<mxfile host="app.diagrams.net" modified="2023-03-12T22:01:11.992Z" agent="5.0 (Windows NT 10.0; Win64; x64) AppleWebKit/537.36 (KHTML, like Gecko) Chrome/110.0.0.0 Safari/537.36" etag="Gq3IlEeVfDmC5au4KY2D" version="21.0.2" type="github">
  <diagram name="Page-1" id="wN5C5Ey0uor77LbkayZ1">
    <mxGraphModel dx="1434" dy="796" grid="1" gridSize="10" guides="1" tooltips="1" connect="1" arrows="1" fold="1" page="1" pageScale="1" pageWidth="1654" pageHeight="1169" math="0" shadow="0">
      <root>
        <mxCell id="0" />
        <mxCell id="1" parent="0" />
        <mxCell id="yBuIY2UQo8MQMNFOKeYJ-1" value="Presentation Layer" style="rounded=1;whiteSpace=wrap;html=1;" vertex="1" parent="1">
          <mxGeometry x="780" y="150" width="120" height="60" as="geometry" />
        </mxCell>
        <mxCell id="yBuIY2UQo8MQMNFOKeYJ-2" value="Business Layer" style="rounded=1;whiteSpace=wrap;html=1;" vertex="1" parent="1">
          <mxGeometry x="780" y="270" width="120" height="60" as="geometry" />
        </mxCell>
        <mxCell id="yBuIY2UQo8MQMNFOKeYJ-3" value="Data Layer" style="rounded=1;whiteSpace=wrap;html=1;" vertex="1" parent="1">
          <mxGeometry x="780" y="390" width="120" height="60" as="geometry" />
        </mxCell>
        <mxCell id="yBuIY2UQo8MQMNFOKeYJ-4" value="" style="endArrow=classic;startArrow=classic;html=1;rounded=0;exitX=0.5;exitY=0;exitDx=0;exitDy=0;" edge="1" parent="1" source="yBuIY2UQo8MQMNFOKeYJ-2">
          <mxGeometry width="50" height="50" relative="1" as="geometry">
            <mxPoint x="790" y="260" as="sourcePoint" />
            <mxPoint x="840" y="210" as="targetPoint" />
          </mxGeometry>
        </mxCell>
        <mxCell id="yBuIY2UQo8MQMNFOKeYJ-5" value="" style="endArrow=classic;startArrow=classic;html=1;rounded=0;exitX=0.5;exitY=0;exitDx=0;exitDy=0;" edge="1" parent="1">
          <mxGeometry width="50" height="50" relative="1" as="geometry">
            <mxPoint x="839.5" y="390" as="sourcePoint" />
            <mxPoint x="839.5" y="330" as="targetPoint" />
          </mxGeometry>
        </mxCell>
        <mxCell id="yBuIY2UQo8MQMNFOKeYJ-6" value="Database" style="shape=cylinder3;whiteSpace=wrap;html=1;boundedLbl=1;backgroundOutline=1;size=15;" vertex="1" parent="1">
          <mxGeometry x="803.5" y="500" width="73" height="60" as="geometry" />
        </mxCell>
        <mxCell id="yBuIY2UQo8MQMNFOKeYJ-7" value="" style="rounded=1;whiteSpace=wrap;html=1;fillColor=none;" vertex="1" parent="1">
          <mxGeometry x="760" y="130" width="160" height="330" as="geometry" />
        </mxCell>
        <mxCell id="yBuIY2UQo8MQMNFOKeYJ-8" value="" style="rounded=1;whiteSpace=wrap;html=1;" vertex="1" parent="1">
          <mxGeometry x="320" y="120" width="200" height="310" as="geometry" />
        </mxCell>
        <mxCell id="yBuIY2UQo8MQMNFOKeYJ-9" value="&lt;font style=&quot;font-size: 15px;&quot;&gt;3-Tiered Architecture&lt;/font&gt;" style="text;html=1;strokeColor=none;fillColor=none;align=center;verticalAlign=middle;whiteSpace=wrap;rounded=0;fontStyle=1" vertex="1" parent="1">
          <mxGeometry x="780" y="60" width="110" height="50" as="geometry" />
        </mxCell>
        <mxCell id="yBuIY2UQo8MQMNFOKeYJ-10" value="&lt;font style=&quot;font-size: 15px;&quot;&gt;SingleTiered Architecture&lt;/font&gt;" style="text;html=1;strokeColor=none;fillColor=none;align=center;verticalAlign=middle;whiteSpace=wrap;rounded=0;fontStyle=1" vertex="1" parent="1">
          <mxGeometry x="365" y="60" width="110" height="50" as="geometry" />
        </mxCell>
        <mxCell id="yBuIY2UQo8MQMNFOKeYJ-11" value="" style="endArrow=classic;startArrow=classic;html=1;rounded=0;exitX=0.5;exitY=0;exitDx=0;exitDy=0;exitPerimeter=0;" edge="1" parent="1" source="yBuIY2UQo8MQMNFOKeYJ-6">
          <mxGeometry width="50" height="50" relative="1" as="geometry">
            <mxPoint x="790" y="500" as="sourcePoint" />
            <mxPoint x="840" y="450" as="targetPoint" />
          </mxGeometry>
        </mxCell>
        <mxCell id="yBuIY2UQo8MQMNFOKeYJ-12" value="Database" style="shape=cylinder3;whiteSpace=wrap;html=1;boundedLbl=1;backgroundOutline=1;size=15;" vertex="1" parent="1">
          <mxGeometry x="382" y="490" width="73" height="60" as="geometry" />
        </mxCell>
        <mxCell id="yBuIY2UQo8MQMNFOKeYJ-13" value="" style="endArrow=classic;startArrow=classic;html=1;rounded=0;entryX=0.5;entryY=1;entryDx=0;entryDy=0;" edge="1" parent="1" source="yBuIY2UQo8MQMNFOKeYJ-12" target="yBuIY2UQo8MQMNFOKeYJ-8">
          <mxGeometry width="50" height="50" relative="1" as="geometry">
            <mxPoint x="370" y="480" as="sourcePoint" />
            <mxPoint x="420" y="430" as="targetPoint" />
          </mxGeometry>
        </mxCell>
        <mxCell id="yBuIY2UQo8MQMNFOKeYJ-19" value="P" style="rounded=1;whiteSpace=wrap;html=1;" vertex="1" parent="1">
          <mxGeometry x="340" y="190" width="30" height="30" as="geometry" />
        </mxCell>
        <mxCell id="yBuIY2UQo8MQMNFOKeYJ-20" value="P" style="rounded=1;whiteSpace=wrap;html=1;" vertex="1" parent="1">
          <mxGeometry x="460" y="230" width="30" height="30" as="geometry" />
        </mxCell>
        <mxCell id="yBuIY2UQo8MQMNFOKeYJ-21" value="P" style="rounded=1;whiteSpace=wrap;html=1;" vertex="1" parent="1">
          <mxGeometry x="400" y="220" width="30" height="30" as="geometry" />
        </mxCell>
        <mxCell id="yBuIY2UQo8MQMNFOKeYJ-22" value="P" style="rounded=1;whiteSpace=wrap;html=1;" vertex="1" parent="1">
          <mxGeometry x="335" y="140" width="30" height="30" as="geometry" />
        </mxCell>
        <mxCell id="yBuIY2UQo8MQMNFOKeYJ-29" value="BD" style="rounded=1;whiteSpace=wrap;html=1;" vertex="1" parent="1">
          <mxGeometry x="455" y="285" width="30" height="30" as="geometry" />
        </mxCell>
        <mxCell id="yBuIY2UQo8MQMNFOKeYJ-30" value="B" style="rounded=1;whiteSpace=wrap;html=1;" vertex="1" parent="1">
          <mxGeometry x="335" y="240" width="30" height="30" as="geometry" />
        </mxCell>
        <mxCell id="yBuIY2UQo8MQMNFOKeYJ-31" value="B" style="rounded=1;whiteSpace=wrap;html=1;" vertex="1" parent="1">
          <mxGeometry x="420" y="160" width="30" height="30" as="geometry" />
        </mxCell>
        <mxCell id="yBuIY2UQo8MQMNFOKeYJ-32" value="B" style="rounded=1;whiteSpace=wrap;html=1;" vertex="1" parent="1">
          <mxGeometry x="370" y="300" width="30" height="30" as="geometry" />
        </mxCell>
        <mxCell id="yBuIY2UQo8MQMNFOKeYJ-40" value="D" style="rounded=1;whiteSpace=wrap;html=1;" vertex="1" parent="1">
          <mxGeometry x="460" y="340" width="30" height="30" as="geometry" />
        </mxCell>
        <mxCell id="yBuIY2UQo8MQMNFOKeYJ-41" value="D" style="rounded=1;whiteSpace=wrap;html=1;" vertex="1" parent="1">
          <mxGeometry x="390" y="370" width="30" height="30" as="geometry" />
        </mxCell>
        <mxCell id="yBuIY2UQo8MQMNFOKeYJ-43" value="PB" style="rounded=1;whiteSpace=wrap;html=1;" vertex="1" parent="1">
          <mxGeometry x="330" y="320" width="30" height="30" as="geometry" />
        </mxCell>
        <mxCell id="yBuIY2UQo8MQMNFOKeYJ-44" value="PB" style="rounded=1;whiteSpace=wrap;html=1;" vertex="1" parent="1">
          <mxGeometry x="485" y="150" width="30" height="30" as="geometry" />
        </mxCell>
        <mxCell id="yBuIY2UQo8MQMNFOKeYJ-45" value="BD" style="rounded=1;whiteSpace=wrap;html=1;" vertex="1" parent="1">
          <mxGeometry x="400" y="270" width="30" height="30" as="geometry" />
        </mxCell>
        <mxCell id="yBuIY2UQo8MQMNFOKeYJ-46" value="BD" style="rounded=1;whiteSpace=wrap;html=1;" vertex="1" parent="1">
          <mxGeometry x="460" y="390" width="30" height="30" as="geometry" />
        </mxCell>
        <mxCell id="yBuIY2UQo8MQMNFOKeYJ-47" value="BD" style="rounded=1;whiteSpace=wrap;html=1;" vertex="1" parent="1">
          <mxGeometry x="460" y="190" width="30" height="30" as="geometry" />
        </mxCell>
        <mxCell id="yBuIY2UQo8MQMNFOKeYJ-48" value="" style="endArrow=classic;startArrow=classic;html=1;rounded=0;entryX=0.5;entryY=1;entryDx=0;entryDy=0;" edge="1" parent="1" source="yBuIY2UQo8MQMNFOKeYJ-40" target="yBuIY2UQo8MQMNFOKeYJ-44">
          <mxGeometry width="50" height="50" relative="1" as="geometry">
            <mxPoint x="610" y="170" as="sourcePoint" />
            <mxPoint x="660" y="120" as="targetPoint" />
          </mxGeometry>
        </mxCell>
        <mxCell id="yBuIY2UQo8MQMNFOKeYJ-49" value="" style="endArrow=classic;startArrow=classic;html=1;rounded=0;entryX=1;entryY=0.5;entryDx=0;entryDy=0;exitX=0;exitY=0.75;exitDx=0;exitDy=0;" edge="1" parent="1" source="yBuIY2UQo8MQMNFOKeYJ-46" target="yBuIY2UQo8MQMNFOKeYJ-21">
          <mxGeometry width="50" height="50" relative="1" as="geometry">
            <mxPoint x="840" y="220" as="sourcePoint" />
            <mxPoint x="890" y="170" as="targetPoint" />
          </mxGeometry>
        </mxCell>
        <mxCell id="yBuIY2UQo8MQMNFOKeYJ-50" value="" style="endArrow=classic;startArrow=classic;html=1;rounded=0;exitX=0;exitY=0.75;exitDx=0;exitDy=0;" edge="1" parent="1" source="yBuIY2UQo8MQMNFOKeYJ-47" target="yBuIY2UQo8MQMNFOKeYJ-21">
          <mxGeometry width="50" height="50" relative="1" as="geometry">
            <mxPoint x="850" y="230" as="sourcePoint" />
            <mxPoint x="900" y="180" as="targetPoint" />
          </mxGeometry>
        </mxCell>
        <mxCell id="yBuIY2UQo8MQMNFOKeYJ-51" value="" style="endArrow=classic;startArrow=classic;html=1;rounded=0;entryX=0.75;entryY=1;entryDx=0;entryDy=0;exitX=0;exitY=0.5;exitDx=0;exitDy=0;" edge="1" parent="1" source="yBuIY2UQo8MQMNFOKeYJ-41" target="yBuIY2UQo8MQMNFOKeYJ-43">
          <mxGeometry width="50" height="50" relative="1" as="geometry">
            <mxPoint x="860" y="240" as="sourcePoint" />
            <mxPoint x="910" y="190" as="targetPoint" />
          </mxGeometry>
        </mxCell>
        <mxCell id="yBuIY2UQo8MQMNFOKeYJ-52" value="" style="endArrow=classic;startArrow=classic;html=1;rounded=0;entryX=0.5;entryY=1;entryDx=0;entryDy=0;exitX=0.5;exitY=0;exitDx=0;exitDy=0;" edge="1" parent="1" source="yBuIY2UQo8MQMNFOKeYJ-41" target="yBuIY2UQo8MQMNFOKeYJ-32">
          <mxGeometry width="50" height="50" relative="1" as="geometry">
            <mxPoint x="870" y="250" as="sourcePoint" />
            <mxPoint x="920" y="200" as="targetPoint" />
          </mxGeometry>
        </mxCell>
        <mxCell id="yBuIY2UQo8MQMNFOKeYJ-53" value="" style="endArrow=classic;startArrow=classic;html=1;rounded=0;entryX=0.75;entryY=1;entryDx=0;entryDy=0;exitX=0.5;exitY=0;exitDx=0;exitDy=0;" edge="1" parent="1" source="yBuIY2UQo8MQMNFOKeYJ-32" target="yBuIY2UQo8MQMNFOKeYJ-22">
          <mxGeometry width="50" height="50" relative="1" as="geometry">
            <mxPoint x="880" y="260" as="sourcePoint" />
            <mxPoint x="930" y="210" as="targetPoint" />
          </mxGeometry>
        </mxCell>
        <mxCell id="yBuIY2UQo8MQMNFOKeYJ-54" value="" style="endArrow=classic;startArrow=classic;html=1;rounded=0;entryX=0.75;entryY=1;entryDx=0;entryDy=0;exitX=0.75;exitY=0;exitDx=0;exitDy=0;" edge="1" parent="1" source="yBuIY2UQo8MQMNFOKeYJ-41" target="yBuIY2UQo8MQMNFOKeYJ-31">
          <mxGeometry width="50" height="50" relative="1" as="geometry">
            <mxPoint x="570" y="260" as="sourcePoint" />
            <mxPoint x="620" y="210" as="targetPoint" />
          </mxGeometry>
        </mxCell>
        <mxCell id="yBuIY2UQo8MQMNFOKeYJ-55" value="" style="endArrow=classic;startArrow=classic;html=1;rounded=0;entryX=0.5;entryY=1;entryDx=0;entryDy=0;exitX=0;exitY=0.5;exitDx=0;exitDy=0;" edge="1" parent="1" source="yBuIY2UQo8MQMNFOKeYJ-40" target="yBuIY2UQo8MQMNFOKeYJ-30">
          <mxGeometry width="50" height="50" relative="1" as="geometry">
            <mxPoint x="890" y="270" as="sourcePoint" />
            <mxPoint x="940" y="220" as="targetPoint" />
          </mxGeometry>
        </mxCell>
        <mxCell id="yBuIY2UQo8MQMNFOKeYJ-56" value="" style="endArrow=classic;startArrow=classic;html=1;rounded=0;exitX=0.5;exitY=0;exitDx=0;exitDy=0;entryX=0.25;entryY=1;entryDx=0;entryDy=0;" edge="1" parent="1" source="yBuIY2UQo8MQMNFOKeYJ-29" target="yBuIY2UQo8MQMNFOKeYJ-20">
          <mxGeometry width="50" height="50" relative="1" as="geometry">
            <mxPoint x="900" y="280" as="sourcePoint" />
            <mxPoint x="490" y="250" as="targetPoint" />
          </mxGeometry>
        </mxCell>
        <mxCell id="yBuIY2UQo8MQMNFOKeYJ-57" value="" style="endArrow=classic;startArrow=classic;html=1;rounded=0;entryX=0.5;entryY=1;entryDx=0;entryDy=0;exitX=0;exitY=0.5;exitDx=0;exitDy=0;" edge="1" parent="1" source="yBuIY2UQo8MQMNFOKeYJ-45" target="yBuIY2UQo8MQMNFOKeYJ-19">
          <mxGeometry width="50" height="50" relative="1" as="geometry">
            <mxPoint x="910" y="290" as="sourcePoint" />
            <mxPoint x="960" y="240" as="targetPoint" />
          </mxGeometry>
        </mxCell>
        <mxCell id="yBuIY2UQo8MQMNFOKeYJ-59" value="In a single tiered architecture,&amp;nbsp; all presentation logic, business logic and data layer logic is mixed everywhere throughout the application." style="text;html=1;strokeColor=none;fillColor=none;align=left;verticalAlign=middle;whiteSpace=wrap;rounded=0;" vertex="1" parent="1">
          <mxGeometry x="150" y="140" width="170" height="90" as="geometry" />
        </mxCell>
        <mxCell id="yBuIY2UQo8MQMNFOKeYJ-60" value="Many parts of the code is catering for multiple concerns e.g. the same class could be performing both business logic and data layer mapping logic" style="text;html=1;strokeColor=none;fillColor=none;align=left;verticalAlign=middle;whiteSpace=wrap;rounded=0;" vertex="1" parent="1">
          <mxGeometry x="150" y="240" width="170" height="90" as="geometry" />
        </mxCell>
        <mxCell id="yBuIY2UQo8MQMNFOKeYJ-62" value="In a 3-tiered architecture,all of the applications presentation layers code exists is the same place and in isolation from the rest of the code. The same applies for business logic and data layer logic" style="text;html=1;strokeColor=none;fillColor=none;align=left;verticalAlign=middle;whiteSpace=wrap;rounded=0;" vertex="1" parent="1">
          <mxGeometry x="580" y="150" width="170" height="90" as="geometry" />
        </mxCell>
        <mxCell id="yBuIY2UQo8MQMNFOKeYJ-63" value="The 3-tiered approach makes code more manageable, easier to maintain and enables specialized team members to concentrate on a single area, e.g. user interface developers could just concentrate on code within the presentation layer" style="text;html=1;strokeColor=none;fillColor=none;align=left;verticalAlign=middle;whiteSpace=wrap;rounded=0;" vertex="1" parent="1">
          <mxGeometry x="580" y="270" width="180" height="120" as="geometry" />
        </mxCell>
      </root>
    </mxGraphModel>
  </diagram>
</mxfile>
